# xmcd
#
# Track frame offsets:
#	150
#	19664
#	39833
#	51396
#	72570
#	94820
#	110220
#	130751
#	152507
#	170561
#	189952
#	213859
#	233809
#	255745
#
# Disc length: 3632 seconds
#
# Revision: 0
# Processed by: cddbd v1.5.2PL0 Copyright (c) Steve Scherf et al.
# Submitted via: dBpowerAMP V4.0
#
DISCID=bd0e2e0e
DTITLE=Steve CopeLand and Ragin Sun - Highway Bound
DYEAR=2003
DGENRE=Blues
TTITLE0=Empty Pallet
TTITLE1=Long Lean Woman
TTITLE2=Blue Riff
TTITLE3=Blues, Blues, Blues
TTITLE4=Low Down
TTITLE5=Sitt'n Down
TTITLE6=Call Me
TTITLE7=Highway Bound
TTITLE8=Sneakin' Out My Back Door
TTITLE9=Down The Road
TTITLE10=Eat Away My Blues
TTITLE11=Come On Over
TTITLE12=Have You Heard
TTITLE13=Slow Burn
EXTD=
EXTT0=
EXTT1=
EXTT2=
EXTT3=
EXTT4=
EXTT5=
EXTT6=
EXTT7=
EXTT8=
EXTT9=
EXTT10=
EXTT11=
EXTT12=
EXTT13=
PLAYORDER=
